<?xml version="1.0" standalone="no"?> <!DOCTYPE svg PUBLIC "-//W3C//DTD SVG 1.0//EN" "http://www.w3.org/TR/2001/REC-SVG-20010904/DTD/svg10.dtd" > <svg xmlns="http://www.w3.org/2000/svg" width="100%" height="100%">
<defs >
<font id="UniversLTStd-BlackExObl" horiz-adv-x="643" ><font-face
    font-family="Univers LT Std 73 Black Ext"
    units-per-em="1000"
    panose-1="2 11 9 7 3 5 2 3 2 4"
    ascent="724"
    descent="-276"
    alphabetic="0" />
<missing-glyph horiz-adv-x="648" d="M148 0V700H648V0H148ZM398 395L568 650H228L398 395ZM428 350L598 95V605L428 350ZM228 50H568L398 305L228 50ZM198 605V95L368 350L198 605Z" />
<glyph unicode=" " glyph-name="space" horiz-adv-x="370" />
<glyph unicode="!" glyph-name="exclam" horiz-adv-x="520" d="M167 0L200 154H386L353 0H167ZM524 722L384 213H226L302 722H524Z" />
<glyph unicode="&quot;" glyph-name="quotedbl" horiz-adv-x="667" d="M467 482L518 722H640L589 482H467ZM282 482L333 722H455L404 482H282Z" />
<glyph unicode="#" glyph-name="numbersign" horiz-adv-x="740" d="M462 303L495 395H426L393 303H462ZM159 187L183 303H271L304 395H232L257 511H345L410 698H532L467 511H536L601 698H723L658 511H730L705 395H617L584 303H656L632 187H544L478 0H356L422 187H353L287
0H165L231 187H159Z" />
<glyph unicode="$" glyph-name="dollar" horiz-adv-x="740" d="M460 272L428 121Q540 129 554 197Q560 228 537 244T460 272ZM429 465L458 601Q368 587 356 530Q350 505 369 490T429 465ZM309 -97L326 -19Q249 -17 196 -2T113 37T71 94T58 160T68 234H278Q267
177 285 152T356 121L391 287L340 297Q291 307 256 320T187 356T142 416T140 502Q153 562 187 608T269 681T372 723T488 741L502 810H574L560 741Q645 738 700 722T783 677T819 608T817 516H613Q618 560 596 579T530 601L497 449L575 432Q609 425 635 417T688 397T730
369T760 332T774 283T769 219Q722 -2 398 -19L381 -97H309Z" />
<glyph unicode="%" glyph-name="percent" horiz-adv-x="1185" d="M198 527Q218 620 283 668T449 717T595 669T620 527Q580 337 369 337T198 527ZM332 527Q327 499 328 475T343 434T386 417Q427 417 451 448T486 526Q508 637 432 637Q391 637 366 605T332 527ZM713
171Q733 264 798 312T965 361T1110 313T1135 171Q1095 -19 884 -19T713 171ZM847 171Q842 143 843 119T858 78T901 61Q942 61 966 92T1001 170Q1013 211 1001 246T948 281T882 250T847 171ZM257 -24L961 722H1077L373 -24H257Z" />
<glyph unicode="&amp;" glyph-name="ampersand" horiz-adv-x="1037" d="M467 551Q458 505 519 456Q564 476 592 497T628 551T614 598T555 613Q518 613 496 596T467 551ZM741 0L701 48Q587 -19 395 -19Q320 -19 262 -6T172 30T119 80T97 136T98 192Q115 273 169
319T336 397Q257 467 277 561Q294 643 378 692T589 741Q706 741 761 689T801 564Q778 455 618 379L752 259Q788 288 820 341T866 444H1052Q1032 362 978 278T858 154L1019 0H741ZM596 146L433 304Q318 269 304 203Q295 160 333 138T437 115Q512 115 596 146Z" />
<glyph unicode="&apos;" glyph-name="quotesingle" horiz-adv-x="370" d="M226 482L277 722H399L348 482H226Z" />
<glyph unicode="(" glyph-name="parenleft" horiz-adv-x="444" d="M401 741H547Q469 655 400 532T307 302Q290 226 295 143T317 -10T360 -137H214Q161 -28 139 86T137 302Q161 414 230 520T401 741Z" />
<glyph unicode=")" glyph-name="parenright" horiz-adv-x="444" d="M172 -137H26Q104 -52 173 71T265 302Q283 378 277 461T255 613T213 741H359Q412 632 434 518T435 302Q411 190 343 84T172 -137Z" />
<glyph unicode="*" glyph-name="asterisk" horiz-adv-x="519" d="M472 722L409 574L411 572L537 672L575 572L428 529V527L556 484L476 384L392 484L389 482L390 334H271L334 482L333 484L207 384L169 484L315 527V529L188 572L268 672L352 572L354 574L353 722H472Z" />
<glyph unicode="+" glyph-name="plus" horiz-adv-x="600" d="M233 0L273 186H87L115 320H301L341 506H475L435 320H621L593 186H407L367 0H233Z" />
<glyph unicode="," glyph-name="comma" horiz-adv-x="370" d="M0 -121L144 154H348L154 -121H0Z" />
<glyph unicode="-" glyph-name="hyphen" horiz-adv-x="444" d="M109 203L136 331H448L421 203H109Z" />
<glyph unicode="." glyph-name="period" horiz-adv-x="370" d="M92 0L125 154H311L278 0H92Z" />
<glyph unicode="/" glyph-name="slash" horiz-adv-x="444" d="M3 -19L449 741H595L149 -19H3Z" />
<glyph unicode="0" glyph-name="zero" horiz-adv-x="740" d="M318 349Q267 109 393 109Q461 109 503 170T570 349Q621 589 495 589Q427 589 385 528T318 349ZM114 349Q151 523 258 620T522 717T745 620T774 349Q737 175 630 78T366 -19T143 78T114 349Z" />
<glyph unicode="1" glyph-name="one" horiz-adv-x="740" d="M329 0L437 510Q378 477 335 460T219 421L255 588Q361 617 511 698H675L527 0H329Z" />
<glyph unicode="2" glyph-name="two" horiz-adv-x="740" d="M57 0L88 148Q128 170 194 204T304 262T402 317T489 376T549 433T581 495Q590 536 567 559T503 583Q401 583 373 482H175Q201 602 291 659T521 717Q666 717 736 659T785 494Q774 445 737 397T653 312T546
240T437 183T338 142V140H713L683 0H57Z" />
<glyph unicode="3" glyph-name="three" horiz-adv-x="740" d="M371 294L399 422H443Q505 422 536 448T574 506Q583 549 557 569T485 589Q451 589 418 570T373 514H175Q227 717 514 717Q669 717 733 662T781 523Q767 454 717 416T578 360L577 358Q656 352 698 309T725
189Q709 114 652 66T523 0T362 -19Q208 -19 135 31T87 205H291Q280 155 306 132T385 109Q434 109 474 131T524 202Q535 254 503 274T414 294H371Z" />
<glyph unicode="4" glyph-name="four" horiz-adv-x="740" d="M403 0L434 145H56L91 311L509 698H737L647 273H773L746 145H620L589 0H403ZM461 273L524 570H522L229 275V273H461Z" />
<glyph unicode="5" glyph-name="five" horiz-adv-x="740" d="M130 271L243 698H776L747 558H385L339 393Q423 462 529 462Q636 462 696 400T733 225Q719 159 681 110T590 33T481 -6T362 -19Q295 -19 245 -10T155 22T99 87T96 191H294Q290 153 312 131T379 109Q444
109 484 141T533 218Q544 270 519 302T439 334Q360 334 322 271H130Z" />
<glyph unicode="6" glyph-name="six" horiz-adv-x="740" d="M782 522H584Q585 557 564 573T502 589Q364 589 327 407Q416 466 525 466Q635 466 699 403T739 223Q722 142 662 85T528 5T375 -19Q293 -19 237 2T152 57T114 141T106 239T122 346Q201 717 531 717Q590
717 634 709T706 687T751 655T775 614T783 569T782 522ZM535 219Q546 274 519 303T441 332Q391 332 351 305T300 225Q289 175 314 145T394 115Q450 115 487 142T535 219Z" />
<glyph unicode="7" glyph-name="seven" horiz-adv-x="740" d="M124 0L586 550H174L205 698H815L783 544L357 0H124Z" />
<glyph unicode="8" glyph-name="eight" horiz-adv-x="740" d="M79 185Q96 266 152 305T298 360V362Q230 371 193 412T170 521Q182 580 221 621T315 681T419 709T522 717T621 709T714 682T782 621T792 521Q778 454 723 413T596 362V360Q678 344 717 305T739 185Q729
136 700 99T634 40T549 4T457 -14T366 -19T278 -15T194 4T123 39T82 98T79 185ZM281 204Q271 156 303 133T393 109T492 132T545 204Q556 252 524 275T434 299T335 276T281 204ZM364 505Q355 463 381 442T459 421T546 442T590 505T573 568T495 589Q383 589 364 505Z"
/>
<glyph unicode="9" glyph-name="nine" horiz-adv-x="740" d="M106 185H310Q303 147 328 129Q348 115 394 115Q505 115 547 247L565 305Q480 252 360 252Q254 252 191 314T149 473Q166 553 223 610T353 692T505 717Q588 717 645 698T732 647T774 567T784 470T768
359Q730 178 632 80T358 -19Q302 -19 256 -10T170 21T113 85T106 185ZM354 481Q344 433 371 410T449 386Q504 386 540 413T586 483Q597 533 569 558T487 583Q442 583 404 559T354 481Z" />
<glyph unicode=":" glyph-name="colon" horiz-adv-x="370" d="M92 0L125 154H311L278 0H92ZM166 348L199 502H385L352 348H166Z" />
<glyph unicode=";" glyph-name="semicolon" horiz-adv-x="370" d="M0 -121L144 154H348L154 -121H0ZM166 348L199 502H385L352 348H166Z" />
<glyph unicode="&lt;" glyph-name="less" horiz-adv-x="600" d="M662 514L634 380L271 253L580 126L551 -8L87 189L114 317L662 514Z" />
<glyph unicode="=" glyph-name="equal" horiz-adv-x="600" d="M112 308L141 442H647L618 308H112ZM61 64L89 198H595L567 64H61Z" />
<glyph unicode="&gt;" glyph-name="greater" horiz-adv-x="600" d="M45 -8L74 126L437 253L128 380L156 514L620 317L593 189L45 -8Z" />
<glyph unicode="?" glyph-name="question" horiz-adv-x="741" d="M262 577L291 717Q406 741 512 741Q578 741 631 731T727 700T790 638T797 541Q774 432 614 352Q541 316 517 293T477 213H297Q300 223 306 245T315 273T322 294T330 314T339 329T352 345T367 359T389
375T415 392T449 413Q452 415 475 428T512 451T546 474T577 503T591 532Q599 570 559 588T452 607Q346 607 262 577ZM249 0L282 154H468L435 0H249Z" />
<glyph unicode="@" glyph-name="at" horiz-adv-x="800" d="M386 337Q379 306 392 285T442 264Q482 264 516 293T559 361Q565 393 550 413T501 434Q459 434 427 405T386 337ZM626 502L645 544H741L644 301Q635 283 630 263Q626 246 640 246Q670 246 708 287T762
406Q786 520 726 578T551 637Q428 637 330 558T207 360Q180 236 246 161T430 85Q558 85 649 143H765Q623 -19 408 -19Q239 -19 150 88T97 360Q122 479 194 566T365 697T577 741Q741 741 821 656T873 438Q859 373 826 319T753 232T670 177T596 145T544 136Q490 136
497 188H495Q452 136 381 136Q304 136 268 190T248 321Q270 423 345 492T514 562Q595 562 626 502Z" />
<glyph unicode="A" glyph-name="A" horiz-adv-x="1037" d="M715 277L637 582L424 277H715ZM14 0L550 722H801L1023 0H788L750 143H330L230 0H14Z" />
<glyph unicode="B" glyph-name="B" horiz-adv-x="889" d="M100 0L253 722H678Q813 722 869 671T910 544Q897 483 846 438T721 375L720 373Q802 366 842 319T868 202Q850 117 767 59T526 0H100ZM368 299L332 134H520Q637 134 655 216Q664 258 637 278T566 299H368ZM429
588L395 427H526Q669 427 686 508Q695 551 668 569T577 588H429Z" />
<glyph unicode="C" glyph-name="C" horiz-adv-x="889" d="M947 485H731Q739 593 598 593Q499 593 434 531T347 365Q335 299 341 247T386 162T493 129Q644 129 678 245H900Q880 168 837 115T731 33T599 -7T441 -19Q267 -19 178 75T130 360Q171 556 303 648T637
741Q710 741 769 728T874 685T941 605T947 485Z" />
<glyph unicode="D" glyph-name="D" horiz-adv-x="963" d="M100 0L253 722H654Q823 722 902 662Q961 617 985 541T988 368Q949 184 813 87Q693 0 486 0H100ZM434 582L340 140H435Q506 140 554 147T649 177T726 246T771 364Q797 485 743 533T564 582H434Z" />
<glyph unicode="E" glyph-name="E" horiz-adv-x="815" d="M100 0L253 722H873L842 574H432L404 440H792L760 292H372L341 148H760L729 0H100Z" />
<glyph unicode="F" glyph-name="F" horiz-adv-x="741" d="M94 0L247 722H832L800 568H425L393 418H747L715 270H361L304 0H94Z" />
<glyph unicode="G" glyph-name="G" horiz-adv-x="963" d="M539 263L567 397H950L869 15Q640 -19 508 -19Q407 -19 331 0T199 63T126 176T127 347Q169 546 308 643T655 741Q712 741 762 734T857 709T933 664T977 593T981 493H765Q775 549 737 575T626 601Q507 601
438 537T347 366Q321 246 373 184T551 121Q616 121 704 139L730 263H539Z" />
<glyph unicode="H" glyph-name="H" horiz-adv-x="963" d="M94 0L247 722H457L396 435H751L812 722H1022L869 0H659L720 287H365L304 0H94Z" />
<glyph unicode="I" glyph-name="I" horiz-adv-x="370" d="M80 0L233 722H443L290 0H80Z" />
<glyph unicode="J" glyph-name="J" horiz-adv-x="741" d="M800 722L705 274Q672 118 577 50T321 -19Q172 -19 102 45T58 237L62 252H272Q261 189 278 159T354 129Q465 129 495 275L590 722H800Z" />
<glyph unicode="K" glyph-name="K" horiz-adv-x="889" d="M100 0L253 722H463L396 403L755 722H1008L624 398L878 0H606L391 372H389L310 0H100Z" />
<glyph unicode="L" glyph-name="L" horiz-adv-x="741" d="M100 0L253 722H463L341 148H749L718 0H100Z" />
<glyph unicode="M" glyph-name="M" horiz-adv-x="1259" d="M92 0L245 722H569L669 186L1007 722H1320L1167 0H969L1094 588H1092L728 0H512L397 588H395L270 0H92Z" />
<glyph unicode="N" glyph-name="N" horiz-adv-x="963" d="M85 0L238 722H514L733 202H735L845 722H1031L878 0H600L384 520H382L271 0H85Z" />
<glyph unicode="O" glyph-name="O" horiz-adv-x="964" d="M368 466T346 361T360 193T509 129Q622 129 686 192T772 361Q784 409 780 451T760 524T705 574T608 593Q496 593 432 530ZM130 361Q166 534 294 637T640 741Q750 741 828 713T944 633T995 513T988 361Q951
188 823 85T478 -19Q389 -19 321 -1T212 52T146 133T119 237T130 361Z" />
<glyph unicode="P" glyph-name="P" horiz-adv-x="815" d="M94 0L247 722H650Q778 722 843 663T884 485Q835 256 527 256H358L304 0H94ZM428 582L388 396H517Q581 396 619 416T669 488Q679 534 654 558T573 582H428Z" />
<glyph unicode="Q" glyph-name="Q" horiz-adv-x="963" d="M368 466T346 361T360 193T509 129Q622 129 686 192T772 361Q784 409 780 451T760 524T705 574T608 593Q496 593 432 530ZM987 140L957 0H800Q706 0 612 -9Q508 -19 478 -19Q389 -19 321 -1T212 52T146
133T119 237T130 361Q166 534 294 637T640 741Q728 741 796 721T905 667T972 588T1000 493T994 390Q975 300 923 227T792 110L794 108Q875 140 946 140H987Z" />
<glyph unicode="R" glyph-name="R" horiz-adv-x="889" d="M100 0L253 722H694Q826 722 886 674T927 533Q913 465 853 419T707 358V356Q818 349 835 293Q846 258 841 150T842 0H619Q615 36 623 117T627 224Q622 250 596 262T508 274H368L310 0H100ZM434 582L398
414H565Q634 414 667 435T710 499Q721 549 688 565T572 582H434Z" />
<glyph unicode="S" glyph-name="S" horiz-adv-x="815" d="M105 234H315Q302 167 329 144T433 121Q575 121 592 197Q599 230 571 246T476 277L377 297Q328 307 293 320T224 356T179 416T177 502Q190 566 228 613T319 688T432 728T557 741Q654 741 718 726T813 683T855
612T855 516H651Q657 566 627 583T540 601Q474 601 437 582T393 530Q390 518 392 509T405 492T423 479T451 469T482 460T519 452L612 432Q665 421 700 407T767 370T808 309T807 219Q756 -19 391 -19Q307 -19 247 -5T157 33T110 89T96 158T105 234Z" />
<glyph unicode="T" glyph-name="T" horiz-adv-x="816" d="M303 0L425 574H147L178 722H944L913 574H635L513 0H303Z" />
<glyph unicode="U" glyph-name="U" horiz-adv-x="963" d="M1025 722L942 330Q903 147 788 64T478 -19Q283 -19 201 57T155 302L244 722H454L368 317Q329 129 509 129Q607 129 660 184T735 343L815 722H1025Z" />
<glyph unicode="V" glyph-name="V" horiz-adv-x="889" d="M1028 722L571 0H319L167 722H395L480 134L824 722H1028Z" />
<glyph unicode="W" glyph-name="W" horiz-adv-x="1259" d="M1398 722L1035 0H781L755 568H753L476 0H218L167 722H387L384 148H386L672 722H925L947 148H949L1200 722H1398Z" />
<glyph unicode="X" glyph-name="X" horiz-adv-x="963" d="M14 0L427 376L190 722H467L601 492L827 722H1077L694 376L949 0H665L522 252L272 0H14Z" />
<glyph unicode="Y" glyph-name="Y" horiz-adv-x="888" d="M339 0L394 257L167 722H425L545 414L793 722H1027L604 257L549 0H339Z" />
<glyph unicode="Z" glyph-name="Z" horiz-adv-x="815" d="M51 0L91 186L624 574H203L234 722H906L866 530L338 148H795L764 0H51Z" />
<glyph unicode="[" glyph-name="bracketleft" horiz-adv-x="444" d="M64 -137L251 741H533L508 625H378L241 -21H371L346 -137H64Z" />
<glyph unicode="\" glyph-name="backslash" horiz-adv-x="444" d="M311 741L433 -19H287L165 741H311Z" />
<glyph unicode="]" glyph-name="bracketright" horiz-adv-x="444" d="M509 741L322 -137H40L65 -21H195L332 625H202L227 741H509Z" />
<glyph unicode="^" glyph-name="asciicircum" horiz-adv-x="600" d="M136 333L387 698H509L606 333H472L419 558L270 333H136Z" />
<glyph unicode="_" glyph-name="underscore" horiz-adv-x="500" d="M-27 -125L-16 -75H484L473 -125H-27Z" />
<glyph unicode="`" glyph-name="grave" horiz-adv-x="370" d="M335 722L418 582H260L125 722H335Z" />
<glyph unicode="a" glyph-name="a" horiz-adv-x="741" d="M519 219H439Q350 219 312 199T266 143Q261 119 279 105T338 91Q422 91 464 130T519 219ZM340 354H142Q156 401 189 435T270 487T365 513T467 521Q623 521 689 474T729 304L688 112Q675 52 668 0H482Q488
48 495 81H493Q411 -19 255 -19Q147 -19 97 23T63 144Q99 317 399 317H539Q551 375 530 396T448 417Q356 417 340 354Z" />
<glyph unicode="b" glyph-name="b" horiz-adv-x="815" d="M99 83L234 722H426L366 436Q466 521 598 521Q725 521 788 449T825 254Q798 128 704 55T488 -19Q429 -19 387 -3T325 32T285 83Q276 39 263 0H77Q87 30 99 83ZM607 188T621 254T604 362T508 405Q442 405
392 362T326 247Q312 181 344 139T443 97Q513 97 560 142Z" />
<glyph unicode="c" glyph-name="c" horiz-adv-x="741" d="M533 188H737Q718 130 678 88T586 23T479 -9T365 -19Q306 -19 254 -5T160 39T100 123T97 249Q117 345 180 408T322 496T493 521Q537 521 575 516T650 496T712 461T750 404T760 324H562Q565 411 469 411Q406
411 362 367T302 252T310 136T401 91Q450 91 485 116T533 188Z" />
<glyph unicode="d" glyph-name="d" horiz-adv-x="815" d="M887 722L752 83Q743 41 738 0H552Q556 35 566 83Q515 35 460 8T319 -19Q197 -19 134 54T98 254Q124 377 217 449T439 521Q569 521 635 436L695 722H887ZM316 320T302 254T316 143T414 97Q479 97 530 138T595
247Q610 319 578 362T479 405Q415 405 366 363Z" />
<glyph unicode="e" glyph-name="e" horiz-adv-x="741" d="M310 308H558Q579 417 458 417Q354 417 310 308ZM740 204H285Q267 85 391 85Q447 85 472 102T515 153H719Q698 107 667 74T604 24T529 -4T450 -16T366 -19Q297 -19 244 -6T151 37T96 119T96 243Q116 336
175 400T311 493T478 521Q654 521 713 440T740 204Z" />
<glyph unicode="f" glyph-name="f" horiz-adv-x="519" d="M139 0L220 380H104L130 502H246Q261 574 286 619T354 688T444 720T567 728Q609 728 649 722L625 608Q597 612 574 612Q514 612 485 590T441 502H592L566 380H412L331 0H139Z" />
<glyph unicode="g" glyph-name="g" horiz-adv-x="815" d="M303 264Q291 205 321 167T419 129Q490 129 537 166T598 264Q611 326 576 362T475 399Q407 399 362 362T303 264ZM557 70L565 109H563Q521 58 454 33T317 7Q198 7 137 81T99 264Q124 382 215 451T431 521Q579
521 636 422H638Q647 470 659 502H845Q834 471 824 422L750 76Q732 -10 694 -68T599 -156T478 -199T328 -211Q262 -211 213 -204T134 -184T87 -154T63 -117T56 -76T58 -33H262Q262 -75 290 -89Q313 -101 361 -101Q445 -101 490 -64T557 70Z" />
<glyph unicode="h" glyph-name="h" horiz-adv-x="815" d="M81 0L234 722H426L361 416Q421 472 474 496T596 521Q724 521 771 457T795 286L734 0H542L597 257Q610 320 589 356T504 393Q442 393 390 347T320 221L273 0H81Z" />
<glyph unicode="i" glyph-name="i" horiz-adv-x="370" d="M89 0L196 502H388L281 0H89ZM443 722L414 582H204L233 722H443Z" />
<glyph unicode="j" glyph-name="j" horiz-adv-x="370" d="M-86 -189L-61 -70H-52Q28 -70 55 -48T102 62L196 502H388L288 34Q261 -90 195 -141T4 -192Q-15 -192 -49 -191T-86 -189ZM443 722L414 582H204L233 722H443Z" />
<glyph unicode="k" glyph-name="k" horiz-adv-x="815" d="M89 0L242 722H434L342 288L628 502H869L576 287L794 0H529L339 273L281 0H89Z" />
<glyph unicode="l" glyph-name="l" horiz-adv-x="370" d="M89 0L242 722H434L281 0H89Z" />
<glyph unicode="m" glyph-name="m" horiz-adv-x="1186" d="M81 0L166 399Q175 439 184 502H370Q368 492 366 474T361 440T355 412H357Q454 521 587 521Q647 521 689 493T743 408Q837 521 979 521Q1008 521 1033 517T1084 504T1128 477T1159 434T1174 371T1166
285L1105 0H913L969 263Q997 393 890 393Q841 393 799 357T746 267L689 0H497L552 257Q559 295 559 325T539 374T477 393Q426 393 383 351T324 240L273 0H81Z" />
<glyph unicode="n" glyph-name="n" horiz-adv-x="815" d="M81 0L166 399Q175 439 184 502H370Q368 492 366 474T361 440T355 412H357Q461 521 593 521Q723 521 770 457T795 286L734 0H542L597 257Q610 320 589 356T504 393Q442 393 390 347T320 221L273 0H81Z" />
<glyph unicode="o" glyph-name="o" horiz-adv-x="816" d="M317 326T301 251T321 134T427 91T551 133T621 251T601 368T495 411T371 369ZM97 251Q108 300 135 344T211 430T338 496T519 521Q587 521 641 510T730 478T788 431T820 374T831 313T825 251Q815 203 788
158T712 72T585 6T404 -19Q336 -19 282 -8T193 24T135 71T103 128T91 189T97 251Z" />
<glyph unicode="p" glyph-name="p" horiz-adv-x="815" d="M40 -192L170 419Q179 461 184 502H370Q366 467 356 419Q407 467 462 494T603 521Q725 521 787 448T824 248Q797 125 704 53T483 -19Q353 -19 287 66L232 -192H40ZM606 182T620 248T606 359T508 405Q443
405 392 364T327 255Q312 183 344 140T443 97Q507 97 556 139Z" />
<glyph unicode="q" glyph-name="q" horiz-adv-x="815" d="M823 419L693 -192H501L556 66Q456 -19 324 -19Q196 -19 133 53T97 248Q123 374 217 447T434 521Q493 521 535 505T597 470T637 419Q646 463 659 502H845Q835 472 823 419ZM315 314T301 248T318 140T414
97Q480 97 530 140T596 255Q610 321 578 363T479 405Q409 405 362 360Z" />
<glyph unicode="r" glyph-name="r" horiz-adv-x="519" d="M81 0L166 399Q175 439 184 502H370Q365 466 351 394H353Q402 464 453 486T602 509L567 345Q541 349 517 349Q439 349 384 307T313 190L273 0H81Z" />
<glyph unicode="s" glyph-name="s" horiz-adv-x="667" d="M75 157H273Q266 119 285 100Q301 85 345 85Q445 85 457 140Q462 164 441 175T384 193L255 214Q108 238 133 353Q142 394 167 425T223 474T295 503T371 517T443 521Q598 521 650 480T688 353H496Q500 390
482 404Q465 417 417 417Q390 417 365 406T335 373Q332 356 344 345T371 330T412 321L538 300Q616 287 643 251T657 150Q621 -19 316 -19Q256 -19 211 -11T140 10T99 41T79 78T73 118T75 157Z" />
<glyph unicode="t" glyph-name="t" horiz-adv-x="519" d="M97 380L123 502H246L267 604L474 674L438 502H600L574 380H412L378 223Q364 170 376 143T442 116Q472 116 519 122L493 0Q417 -12 361 -12Q250 -12 203 32T174 167L220 380H97Z" />
<glyph unicode="u" glyph-name="u" horiz-adv-x="815" d="M841 502L756 103Q743 45 738 0H552Q558 45 567 90H565Q461 -19 329 -19Q199 -19 152 45T127 216L188 502H380L325 245Q312 182 333 146T418 109Q480 109 532 155T602 281L649 502H841Z" />
<glyph unicode="v" glyph-name="v" horiz-adv-x="741" d="M833 502L489 0H252L122 502H338L407 110L647 502H833Z" />
<glyph unicode="w" glyph-name="w" horiz-adv-x="1185" d="M1277 502L958 0H733L675 386H673L452 0H227L122 502H338L377 128H379L591 502H828L882 128H884L1093 502H1277Z" />
<glyph unicode="x" glyph-name="x" horiz-adv-x="741" d="M15 0L296 265L150 502H398L458 359L591 502H813L562 265L726 0H478L396 176L231 0H15Z" />
<glyph unicode="y" glyph-name="y" horiz-adv-x="741" d="M123 -192L273 0L122 502H346L416 157L644 502H833L327 -192H123Z" />
<glyph unicode="z" glyph-name="z" horiz-adv-x="667" d="M52 0L83 148L436 384V386H159L184 502H697L668 368L300 118V116H640L615 0H52Z" />
<glyph unicode="{" glyph-name="braceleft" horiz-adv-x="444" d="M93 244L118 360Q131 360 144 362T175 370T206 390T224 426L263 612Q276 675 324 708T426 741H536L511 625H476Q443 625 428 611T405 564L370 398Q359 350 319 328T239 303V301Q255 300 270 295T302
280T326 251T329 206L294 40Q287 7 296 -7T339 -21H374L349 -137H239Q185 -137 152 -104T131 -8L171 178Q176 199 169 213T146 234T118 242T93 244Z" />
<glyph unicode="|" glyph-name="bar" horiz-adv-x="515" d="M275 828H391V-276H275V828Z" />
<glyph unicode="}" glyph-name="braceright" horiz-adv-x="444" d="M480 360L455 244Q442 244 429 242T398 234T367 214T349 178L309 -8Q296 -71 249 -104T147 -137H37L62 -21H97Q130 -21 145 -7T168 40L203 206Q210 239 235 261T285 291T333 301V303Q317 304
302 309T270 324T246 353T244 398L279 564Q286 597 277 611T234 625H199L224 741H334Q388 741 421 708T441 612L402 426Q397 405 404 391T427 370T455 362T480 360Z" />
<glyph unicode="~" glyph-name="asciitilde" horiz-adv-x="600" d="M571 357L582 239Q556 211 540 196T496 166T438 151Q400 151 344 186T236 221T137 149L126 267Q191 355 269 355Q305 355 373 321Q378 319 397 310T424 297T445 289T468 285Q487 285 507 297T538
321T571 357Z" />
</font>
</defs>
</svg>
